<?xml version="1.0" standalone="no"?>
<!DOCTYPE svg PUBLIC "-//W3C//DTD SVG 20010904//EN"
 "http://www.w3.org/TR/2001/REC-SVG-20010904/DTD/svg10.dtd">
<svg version="1.0" xmlns="http://www.w3.org/2000/svg"
 width="693.000000pt" height="457.000000pt" viewBox="0 0 693.000000 457.000000"
 preserveAspectRatio="xMidYMid meet">
<metadata>
Created by potrace 1.16, written by Peter Selinger 2001-2019
</metadata>
<g transform="translate(0.000000,457.000000) scale(0.100000,-0.100000)"
fill="#000000" stroke="none">
<path d="M0 2285 l0 -2285 3465 0 3465 0 0 2285 0 2285 -3465 0 -3465 0 0
-2285z m6830 2232 c-8 -8 -608 -393 -1332 -857 -725 -463 -1318 -847 -1318
-853 0 -19 55 -147 62 -144 6 2 258 221 306 267 13 12 26 20 28 17 3 -3 -67
-217 -155 -477 -89 -260 -161 -476 -161 -481 0 -5 129 -9 302 -9 171 0 298 -4
293 -9 -14 -12 -4757 -1903 -4762 -1898 -5 5 -16 -2 1454 961 645 423 1173
771 1173 775 0 4 -15 25 -34 47 l-34 39 -63 -50 c-35 -27 -108 -85 -162 -128
-55 -43 -101 -76 -104 -74 -2 3 69 212 158 466 89 254 160 464 157 466 -2 3
-158 22 -347 44 -188 21 -345 41 -348 45 -3 3 0 8 8 11 8 3 1107 421 2444 930
1337 508 2434 924 2440 925 5 0 3 -6 -5 -13z"/>
<path d="M4373 3582 c-1310 -499 -2380 -909 -2377 -911 2 -3 151 -21 330 -42
179 -20 327 -39 330 -42 4 -4 -45 -149 -260 -760 -30 -87 -50 -155 -43 -151
20 13 240 186 270 213 l28 26 44 -50 c24 -28 43 -54 42 -59 -2 -5 -577 -385
-1280 -845 -702 -460 -1279 -840 -1282 -843 -4 -3 618 243 1382 548 763 305
1808 722 2322 927 l935 372 -287 3 c-158 1 -287 6 -287 11 0 5 7 28 16 52 8
24 81 235 160 468 117 345 140 421 122 405 -13 -11 -81 -72 -153 -135 -71 -62
-133 -118 -137 -124 -11 -15 -22 1 -57 89 -27 65 -30 81 -19 91 7 6 589 380
1293 830 1186 758 1307 836 1295 834 -3 0 -1077 -408 -2387 -907z m1752 588
c-16 -12 -57 -36 -90 -54 -47 -27 -1204 -509 -2945 -1228 -58 -24 -112 -48
-121 -53 -15 -9 -222 -495 -222 -520 0 -5 46 -120 102 -254 79 -188 99 -246
89 -252 -7 -5 -16 -5 -20 -1 -3 4 -52 126 -108 271 l-102 263 118 279 118 278
1476 597 c811 328 1527 618 1590 645 124 51 163 61 115 29z m-2080 -1372 c9
-24 57 -145 106 -270 l89 -227 -121 -278 c-67 -153 -122 -279 -124 -281 -4 -5
-3160 -1285 -3180 -1289 -11 -3 16 19 60 47 64 42 332 157 1395 596 1356 560
1673 692 1701 709 15 9 222 485 222 510 0 6 -46 122 -102 259 -80 195 -100
251 -89 257 21 14 25 11 43 -33z m-306 -463 c-68 -180 -125 -323 -126 -318 -2
5 16 90 41 189 24 98 42 182 40 186 -2 3 -20 2 -40 -4 -20 -5 -37 -8 -39 -6
-5 5 238 289 242 284 3 -2 -51 -151 -118 -331z m-458 109 c-45 -182 -50 -210
-36 -208 6 1 30 5 54 9 l44 7 -129 -145 c-71 -79 -130 -143 -132 -142 -1 1 50
149 115 329 65 180 119 323 121 318 1 -5 -15 -81 -37 -168z"/>
</g>
</svg>
